<?xml version="1.0" encoding="UTF-8" standalone="no"?>
<svg
   xmlns:dc="http://purl.org/dc/elements/1.1/"
   xmlns:cc="http://creativecommons.org/ns#"
   xmlns:rdf="http://www.w3.org/1999/02/22-rdf-syntax-ns#"
   xmlns:svg="http://www.w3.org/2000/svg"
   xmlns="http://www.w3.org/2000/svg"
   xmlns:sodipodi="http://sodipodi.sourceforge.net/DTD/sodipodi-0.dtd"
   xmlns:inkscape="http://www.inkscape.org/namespaces/inkscape"
   width="93.811203mm"
   height="93.811203mm"
   viewBox="0 0 93.811203 93.811203"
   version="1.1"
   id="svg8"
   inkscape:version="1.0.1 (3bc2e813f5, 2020-09-07)"
   sodipodi:docname="IgnisStamp.svg">
  <defs
     id="defs2">
    <pattern
       id="EMFhbasepattern"
       patternUnits="userSpaceOnUse"
       width="6"
       height="6"
       x="0"
       y="0" />
  </defs>
  <sodipodi:namedview
     id="base"
     pagecolor="#ffffff"
     bordercolor="#666666"
     borderopacity="1.0"
     inkscape:pageopacity="0.0"
     inkscape:pageshadow="2"
     inkscape:zoom="1.4"
     inkscape:cx="141.44791"
     inkscape:cy="212.34648"
     inkscape:document-units="mm"
     inkscape:current-layer="layer1"
     inkscape:document-rotation="0"
     showgrid="false"
     inkscape:window-width="1267"
     inkscape:window-height="1040"
     inkscape:window-x="78"
     inkscape:window-y="0"
     inkscape:window-maximized="0"
     fit-margin-top="0"
     fit-margin-left="0"
     fit-margin-right="0"
     fit-margin-bottom="0" />
  <metadata
     id="metadata5">
    <rdf:RDF>
      <cc:Work
         rdf:about="">
        <dc:format>image/svg+xml</dc:format>
        <dc:type
           rdf:resource="http://purl.org/dc/dcmitype/StillImage" />
        <dc:title />
      </cc:Work>
    </rdf:RDF>
  </metadata>
  <g
     inkscape:label="Layer 1"
     inkscape:groupmode="layer"
     id="layer1"
     transform="translate(-66.210737,-53.562899)">
    <path
       style="fill:#000000;stroke-width:1"
       id="path850"
       d="" />
    <path
       style="fill:#000000;stroke-width:1"
       id="path848"
       d="" />
    <path
       style="fill:#000000;stroke-width:1"
       id="path846"
       d="" />
    <g
       id="g872"
       transform="rotate(10.329843,41.607868,94.517852)">
      <path
         style="fill:#f15622;fill-opacity:1;stroke-width:0.999996"
         d="m 92.424867,95.132189 c 0.264344,-1.11334 0.823167,-2.76727 1.241685,-3.675402 1.17653,-2.552856 4.016078,-6.79648 7.406968,-11.069494 5.47439,-6.898519 11.71572,-12.769721 17.88281,-16.822359 4.80973,-3.160657 12.66218,-6.908877 17.15689,-8.189524 5.53356,-1.576638 10.34448,-4.210813 14.30412,-7.832109 l 2.15558,-1.971387 -0.30177,0.969946 c -0.92246,2.964313 -3.1941,6.680043 -5.56708,9.106142 -2.30716,2.358805 -4.17229,3.726298 -7.38277,5.41296 -3.77618,1.983846 -5.26819,3.130281 -6.57499,5.052106 -1.0759,1.582298 -1.67651,3.157353 -1.82219,4.778746 -0.14071,1.566154 0.36251,2.254598 1.79529,2.455852 2.10893,0.296216 3.79793,-0.48492 6.13173,-2.835819 1.45962,-1.470306 1.94038,-2.183545 2.77129,-4.111443 1.89885,-4.405695 0.19715,3.369288 -1.91794,8.762913 -2.10033,5.356021 -6.02035,11.27605 -11.31708,17.091052 -3.35945,3.68818 -9.06955,9.070941 -11.07906,10.444021 -4.05206,2.76867 -12.90826,6.43174 -13.70112,5.667 -0.18737,-0.18073 -0.27302,-0.61722 -0.19033,-0.96997 0.20904,-0.89137 1.63444,-5.16671 2.77573,-8.325121 0.52489,-1.45257 1.49491,-4.31444 2.15559,-6.35971 0.66071,-2.045288 1.72914,-5.237261 2.37429,-7.093299 1.45735,-4.192652 2.4584,-7.499147 2.31286,-7.639521 -0.0607,-0.05866 -3.9619,3.758356 -8.66922,8.48214 -4.707292,4.723773 -9.235736,9.1909 -10.063201,9.92696 -1.395603,1.24141 -1.535434,1.31769 -1.931627,1.05392 -0.334671,-0.22277 -0.323051,-0.72257 0.05361,-2.30862 z m 27.272973,-3.647092 9.0318,-9.097951 -4.22697,-4.07064 c -2.32467,-2.23902 -4.40995,-4.069461 -4.63355,-4.06808 -0.50046,0.0031 -0.88026,0.71308 -1.569,2.933075 -0.58127,1.873455 -1.26546,3.916883 -2.46438,7.359724 -2.27803,6.541635 -3.53129,10.211334 -3.84611,11.261834 -0.18592,0.62015 -0.4581,1.38303 -0.60492,1.6953 -0.36301,0.77189 -0.92203,2.820091 -0.80959,2.966321 0.05,0.0651 4.15528,-3.975741 9.12278,-8.979627 z"
         id="path852" />
      <path
         style="fill:#000000;stroke-width:0.999998"
         d="m 92.175882,123.70613 c 0.707343,-0.5585 2.261085,-1.78012 3.45275,-2.7147 2.834567,-2.22304 3.539762,-2.77689 6.310218,-4.95584 1.27745,-1.00471 2.88811,-2.2689 3.57926,-2.80931 0.69114,-0.54041 1.46843,-1.14942 1.72731,-1.35336 0.25888,-0.20394 1.14842,-0.90494 1.97677,-1.55778 0.82835,-0.65285 1.99461,-1.57152 2.59168,-2.0415 0.82523,-0.64957 1.1106,-0.91547 1.18987,-1.10872 0.10315,-0.25144 0.0967,-0.28766 -0.59665,-3.33204 -0.4421,-1.94126 -0.74325,-3.1405 -0.81547,-3.24753 -0.0675,-0.10008 -0.4024,-0.714747 -0.48019,-0.696507 -8.4381,4.857317 -15.461157,11.917417 -23.950086,14.375537 l 1.319188,2.40258 0.906123,3.95107 c 0.615314,2.68304 0.940619,3.99021 1.013516,4.07308 0.06687,0.076 0.179446,0.10477 0.298512,0.0763 0.105109,-0.0252 0.769856,-0.50272 1.477206,-1.06123 z m -0.401222,-1.73219 c -2.209611,-1.91075 -2.10614,-7.40659 -2.612163,-7.78891 -3.265515,5.29779 -11.010661,-8.58626 -18.566087,-1.96777 -0.02645,0.28769 0.09317,1.79914 0.631861,3.96274 l 0.639583,2.56892 0.227922,0.20788 c 0.125357,0.11433 0.341215,0.25011 0.479695,0.30173 0.680328,0.25361 2.114073,0.7573 4.504292,1.5824 3.451921,1.19157 10.386245,3.59665 11.209397,3.88781 0.661576,0.23401 2.23984,0.18245 2.326682,-0.0223 z m -3.717674,-6.47903 c 0.148165,-0.0657 0.760185,-0.45208 1.360043,-0.85862 0.599849,-0.40654 1.697172,-1.14895 2.438485,-1.64981 0.741312,-0.50086 2.271886,-1.53588 3.401283,-2.30005 1.129389,-0.76417 2.457985,-1.66178 2.952423,-1.9947 0.494439,-0.3329 1.505606,-1.01469 2.24702,-1.51508 0.74143,-0.50038 2.38841,-1.60973 3.65997,-2.46521 1.27155,-0.85548 2.59993,-1.75397 2.95197,-1.99665 0.35202,-0.24268 1.33375,-0.90726 2.18162,-1.47685 0.84788,-0.56959 1.62642,-1.1019 1.7301,-1.18291 l 0.18852,-0.147301 -0.35013,-0.0663 c -0.19257,-0.0365 -2.72714,-0.50061 -5.63236,-1.03141 -2.90522,-0.53081 -5.352506,-0.97943 -5.438396,-0.99693 -0.08589,-0.0175 -1.083097,-0.20362 -2.216011,-0.41359 -1.647817,-0.30539 -2.146169,-0.36935 -2.491406,-0.31974 l -0.431566,0.062 c -5.188712,-4.607725 -3.534592,-1.40717 -1.763282,0.488905 -4.399469,1.059763 1.763282,-0.488905 -11.356994,7.438046 -0.131591,0.0308 -9.788932,6.02659 -9.907062,6.15077 -0.212306,0.22319 -0.765843,0.58998 -0.984803,0.99778 0.393942,0.95962 10.359143,2.62386 16.973282,3.41888 0.119866,-0.012 0.339169,-0.0755 0.487333,-0.14126 z m -5.669091,-9.11294 c -15.9465,-37.711279 -7.97325,-18.85564 0,0 z m 13.869972,-6.913401 c -0.506206,-0.44582 -1.448107,-1.09262 -1.554736,-1.06761 -0.02954,0.007 -0.209178,0.17274 -0.399203,0.36848 -6.894376,3.428331 -7.820579,-12.858631 -10.284163,2.818341 -0.383537,0.64904 -0.650242,1.80279 -0.669338,2.89556 -0.01189,0.68046 0.04432,0.9442 0.307773,1.44393 4.65685,3.34234 18.87196,-0.80832 12.599667,-6.458701 z m -5.652913,0.733971 c 1.076078,-0.377061 2.17227,-0.988541 2.991667,-1.668851 1.362137,-0.867556 0.635163,-1.717162 -0.314062,-2.472898 l -0.857627,-0.928622 -1.720166,-2.83507 c -1.19595,-1.971092 -3.29083,1.760735 -5.094055,1.716425 -0.961869,-0.0236 -0.724197,3.231625 -0.915815,3.819335 -0.918693,3.839951 3.905888,3.040261 5.910058,2.369681 z m -1.27045,-4.308021 c 0.551302,-0.19192 3.451065,1.036401 4.005285,0.719701 l -1.447416,-1.959731 -0.165466,-0.89976 c -0.82925,-4.50935 -0.885759,-8.47306 -0.181328,-12.717987 0.29179,-1.758287 0.453033,-2.345353 1.560689,-5.682132 0.375373,-1.13081 0.764502,-2.359643 0.864732,-2.73074 0.372633,-1.379699 0.566852,-2.972592 0.50395,-4.133173 -0.03942,-0.727038 -0.408694,-2.212381 -0.716156,-2.880485 -0.90048,-1.956705 -2.585244,-3.867067 -4.156604,-4.713192 -0.317429,-0.170924 -0.657557,-0.354269 -0.755841,-0.407434 -0.431753,-0.233549 -1.455069,-0.574224 -2.257834,-0.75166 -2.061232,-0.455595 -4.043109,-0.420398 -6.314038,0.112132 -3.629869,0.851203 -6.491935,2.781466 -8.047204,5.427274 -0.719421,1.223884 -1.02537,2.186006 -1.193027,3.751789 -0.124881,1.166257 -0.06803,2.047225 0.208905,3.236498 0.562659,2.416203 1.57892,3.985142 4.939115,7.624842 1.655009,1.792679 2.495549,2.809537 3.442552,4.164745 1.984493,2.839893 3.331608,5.417933 4.615079,8.832113 0.273284,0.72695 0.628566,3.422053 0.726389,3.593313 0.769338,1.34677 1.882807,-0.109073 3.557295,-0.397933 0.294779,-0.0509 0.659696,-0.13554 0.810916,-0.1882 z"
         id="path868"
         sodipodi:nodetypes="sssssssssccccsccsscccscssssscssssssssscsssssccccsccsscccsccscccccsssccscsssssssssssscscscsccs" />
    </g>
  </g>
</svg>
